<svg width="1024" height="1024" viewBox="0 0 1024 1024" fill="none" xmlns="http://www.w3.org/2000/svg">
<g clip-path="url(#clip0_2032_11)">
<path d="M0 119.766C0 53.6211 53.6211 0 119.766 0H904.234C970.379 0 1024 53.6211 1024 119.766V904.234C1024 970.379 970.379 1024 904.234 1024H119.766C53.6211 1024 0 970.379 0 904.234V119.766Z" fill="#FF0057"/>
<path d="M216.107 185.093V838.363H117.542V185.093H216.107Z" fill="white"/>
<path d="M599.839 626.56H696.809L765.07 715.556L797.287 755.109L906.059 897.055H805.262L732.534 802.318L707.654 767.868L599.839 626.56ZM927.112 511.728C927.112 581.478 914.352 641.446 888.834 691.632C863.316 741.606 828.334 780.096 783.89 807.103C739.658 833.897 689.366 847.294 633.013 847.294C576.447 847.294 525.942 833.897 481.498 807.103C437.266 780.096 402.391 741.499 376.872 691.313C351.354 641.127 338.595 581.265 338.595 511.728C338.595 441.978 351.354 382.116 376.872 332.142C402.391 281.956 437.266 243.466 481.498 216.672C525.942 189.665 576.447 176.162 633.013 176.162C689.366 176.162 739.658 189.665 783.89 216.672C828.334 243.466 863.316 281.956 888.834 332.142C914.352 382.116 927.112 441.978 927.112 511.728ZM829.504 511.728C829.504 458.565 820.892 413.801 803.667 377.438C786.654 340.861 763.263 313.216 733.491 294.503C703.932 275.577 670.44 266.114 633.013 266.114C595.373 266.114 561.774 275.577 532.215 294.503C502.657 313.216 479.265 340.861 462.04 377.438C445.028 413.801 436.522 458.565 436.522 511.728C436.522 564.891 445.028 609.761 462.04 646.337C479.265 682.701 502.657 710.346 532.215 729.272C561.774 747.985 595.373 757.342 633.013 757.342C670.44 757.342 703.932 747.985 733.491 729.272C763.263 710.346 786.654 682.701 803.667 646.337C820.892 609.761 829.504 564.891 829.504 511.728Z" fill="white"/>
</g>
<defs>
<clipPath id="clip0_2032_11">
<rect width="1024" height="1024" fill="white"/>
</clipPath>
</defs>
</svg>
