<svg width="1012" height="342" viewBox="0 335 1024 355" fill="none" xmlns="http://www.w3.org/2000/svg">
<path d="M6 381C6 358.909 23.9086 341 46 341H308C330.091 341 348 358.909 348 381V643C348 665.091 330.091 683 308 683H46C23.9086 683 6 665.091 6 643V381Z" fill="#FF0057"/>
<path d="M78.1763 402.818V621H45.2573V402.818H78.1763Z" fill="white"/>
<path d="M206.337 550.261H238.723L261.521 579.984L272.281 593.195L308.61 640.602H274.945L250.655 608.962L242.345 597.456L206.337 550.261ZM315.641 511.909C315.641 535.205 311.379 555.233 302.857 571.994C294.334 588.685 282.651 601.54 267.807 610.56C253.034 619.509 236.237 623.983 217.416 623.983C198.524 623.983 181.656 619.509 166.813 610.56C152.04 601.54 140.392 588.649 131.869 571.888C123.347 555.126 119.085 535.134 119.085 511.909C119.085 488.614 123.347 468.621 131.869 451.93C140.392 435.169 152.04 422.314 166.813 413.365C181.656 404.345 198.524 399.835 217.416 399.835C236.237 399.835 253.034 404.345 267.807 413.365C282.651 422.314 294.334 435.169 302.857 451.93C311.379 468.621 315.641 488.614 315.641 511.909ZM283.041 511.909C283.041 494.153 280.165 479.203 274.412 467.058C268.73 454.842 260.918 445.609 250.975 439.359C241.102 433.038 229.916 429.878 217.416 429.878C204.845 429.878 193.624 433.038 183.752 439.359C173.879 445.609 166.067 454.842 160.314 467.058C154.632 479.203 151.791 494.153 151.791 511.909C151.791 529.665 154.632 544.651 160.314 556.866C166.067 569.011 173.879 578.244 183.752 584.565C193.624 590.815 204.845 593.94 217.416 593.94C229.916 593.94 241.102 590.815 250.975 584.565C260.918 578.244 268.73 569.011 274.412 556.866C280.165 544.651 283.041 529.665 283.041 511.909Z" fill="white"/>
<path d="M372.06 402.818H412.01L481.471 572.42H484.027L553.488 402.818H593.438V621H562.117V463.116H560.093L495.746 620.68H469.752L405.405 463.01H403.381V621H372.06V402.818Z" fill="#FF0057"/>
<path d="M709.267 624.303C693.145 624.303 679.26 620.858 667.612 613.969C656.036 607.009 647.087 597.243 640.766 584.672C634.516 572.03 631.391 557.222 631.391 540.247C631.391 523.486 634.516 508.713 640.766 495.929C647.087 483.145 655.893 473.166 667.186 465.993C678.55 458.82 691.831 455.233 707.03 455.233C716.263 455.233 725.212 456.76 733.876 459.814C742.541 462.868 750.318 467.662 757.207 474.196C764.097 480.73 769.53 489.217 773.507 499.658C777.484 510.027 779.473 522.634 779.473 537.477V548.77H649.395V524.906H748.259C748.259 516.526 746.554 509.104 743.145 502.641C739.736 496.107 734.942 490.957 728.763 487.193C722.655 483.429 715.482 481.547 707.243 481.547C698.294 481.547 690.482 483.749 683.805 488.152C677.2 492.484 672.087 498.166 668.464 505.197C664.913 512.158 663.138 519.722 663.138 527.889V546.533C663.138 557.47 665.055 566.774 668.891 574.445C672.797 582.115 678.23 587.974 685.19 592.023C692.151 596 700.283 597.989 709.587 597.989C715.624 597.989 721.128 597.136 726.099 595.432C731.071 593.656 735.368 591.028 738.99 587.548C742.612 584.068 745.382 579.771 747.3 574.658L777.449 580.091C775.034 588.969 770.702 596.746 764.452 603.422C758.273 610.027 750.496 615.176 741.121 618.869C731.817 622.491 721.199 624.303 709.267 624.303Z" fill="#FF0057"/>
<path d="M846.669 402.818V621H814.816V402.818H846.669Z" fill="#FF0057"/>
<path d="M937.143 624.622C926.774 624.622 917.399 622.705 909.018 618.869C900.638 614.963 893.997 609.317 889.097 601.93C884.267 594.544 881.852 585.489 881.852 574.764C881.852 565.531 883.628 557.932 887.179 551.966C890.73 546 895.524 541.277 901.561 537.797C907.598 534.317 914.345 531.689 921.803 529.913C929.26 528.138 936.859 526.788 944.601 525.865C954.402 524.729 962.357 523.805 968.464 523.095C974.572 522.314 979.011 521.071 981.781 519.366C984.551 517.662 985.936 514.892 985.936 511.057V510.311C985.936 501.007 983.308 493.798 978.053 488.685C972.868 483.571 965.126 481.014 954.828 481.014C944.104 481.014 935.652 483.393 929.473 488.152C923.365 492.839 919.139 498.06 916.795 503.812L886.859 496.994C890.411 487.051 895.595 479.026 902.413 472.918C909.303 466.739 917.222 462.264 926.17 459.494C935.119 456.653 944.53 455.233 954.402 455.233C960.936 455.233 967.861 456.014 975.176 457.577C982.563 459.068 989.452 461.838 995.844 465.886C1002.31 469.935 1007.6 475.723 1011.72 483.251C1015.84 490.709 1017.9 500.403 1017.9 512.335V621H986.788V598.628H985.51C983.45 602.747 980.361 606.795 976.241 610.773C972.122 614.75 966.831 618.053 960.368 620.68C953.905 623.308 946.163 624.622 937.143 624.622ZM944.068 599.054C952.875 599.054 960.403 597.314 966.653 593.834C972.974 590.354 977.768 585.808 981.036 580.197C984.374 574.516 986.043 568.443 986.043 561.98V540.886C984.906 542.023 982.705 543.088 979.438 544.082C976.241 545.006 972.584 545.822 968.464 546.533C964.345 547.172 960.332 547.776 956.426 548.344C952.52 548.841 949.253 549.267 946.625 549.622C940.446 550.403 934.8 551.717 929.686 553.564C924.643 555.411 920.595 558.074 917.541 561.554C914.558 564.963 913.067 569.509 913.067 575.19C913.067 583.074 915.979 589.04 921.803 593.088C927.626 597.065 935.048 599.054 944.068 599.054Z" fill="#FF0057"/>
</svg>
